<?xml version="1.0" encoding="utf-8"?>
<!-- Generator: Adobe Illustrator 24.2.0, SVG Export Plug-In . SVG Version: 6.00 Build 0)  -->
<svg version="1.1" id="Layer_1" xmlns="http://www.w3.org/2000/svg" xmlns:xlink="http://www.w3.org/1999/xlink" x="0px" y="0px"
	 viewBox="0 0 117 80.6" style="enable-background:new 0 0 117 80.6;" xml:space="preserve">
<style type="text/css">
	.st0{fill:none;stroke:#000000;stroke-width:4;stroke-miterlimit:10;}
	.st1{stroke:#000000;stroke-miterlimit:10;}
</style>
<ellipse class="st0" cx="58.5" cy="40.3" rx="54.2" ry="36.9"/>
<polygon class="st1" points="82.3,21.6 70.7,53.3 70.6,53.3 58.8,21.6 57,21.6 53.6,21.6 53.6,21.6 53.6,53 53.5,53 32.7,21.6 
	28.8,21.6 28.8,57.6 32.2,57.6 32.2,26.2 32.3,26.2 53,57.6 53.6,57.6 57,57.6 57,57.6 57,25.5 57.1,25.5 68.9,57.6 72.1,57.6 
	83.9,25.5 84,25.5 84,57.6 87.4,57.6 87.4,21.6 "/>
</svg>
