<?xml version="1.0" encoding="utf-8"?>
<!-- Generator: Adobe Illustrator 27.5.0, SVG Export Plug-In . SVG Version: 6.00 Build 0)  -->
<svg version="1.1" id="Layer_1" xmlns="http://www.w3.org/2000/svg" xmlns:xlink="http://www.w3.org/1999/xlink" x="0px" y="0px"
	 viewBox="0 0 16 16" style="enable-background:new 0 0 16 16;" xml:space="preserve">
<g>
	<g>
		<path d="M7.9,13.2c-4.2,0-7.6-2.4-7.6-5.3c0-2.9,3.4-5.3,7.6-5.3c4.2,0,7.6,2.4,7.6,5.3C15.5,10.8,12.1,13.2,7.9,13.2z M7.9,3.2
			C4,3.2,0.8,5.3,0.8,7.9s3.2,4.7,7.1,4.7c3.9,0,7.1-2.1,7.1-4.7S11.8,3.2,7.9,3.2z"/>
	</g>
	<polygon points="11.1,5.3 9.5,9.5 8,5.4 8,5.3 7.1,5.3 7.1,9.4 4.4,5.3 3.8,5.3 3.8,10.3 4.4,10.3 4.4,6.2 7.1,10.3 7.1,10.3 
		7.7,10.3 7.7,6.3 9.2,10.3 9.2,10.3 9.8,10.3 11.3,6.3 11.3,10.3 11.9,10.3 11.9,5.3 	"/>
</g>
</svg>
